<?xml version="1.0" encoding="utf-8"?>
<!-- Generator: Adobe Illustrator 25.0.1, SVG Export Plug-In . SVG Version: 6.00 Build 0)  -->
<svg version="1.1" id="Layer_1" xmlns="http://www.w3.org/2000/svg" xmlns:xlink="http://www.w3.org/1999/xlink" x="0px" y="0px"
	 viewBox="0 0 99 90" style="enable-background:new 0 0 99 90;" xml:space="preserve">
<g>
	<g>
		<g>
			<path d="M40.6,33.5C40,34.8,38.6,38,38,39.2c-0.6-0.1-3.6-0.2-5.6,0.1c-4.1,0.6-6.4,2.5-5,3.2c1.6,0.8,7,1.8,7.8,3.1
				c-3.9,9.8-9.5,13.2-14.8,13.2c-8.4,0-16.1-12.3-10.7-22.3c0.5-1-1.1-1.8-2.6-1.5c-3.1,0.7-5.9,4.5-6.5,8
				c-3,17.5,13.1,20.4,19.4,20.4c8.6,0,19.3-3.2,25.4-21.1c2.2-6.4,4.8-11.9,4.8-11.9C47,29.3,43.2,28.4,40.6,33.5z"/>
			<path d="M98,50.1c-2.5,4.7-9.7,9.6-17.2,8c-5.9-1.3-8.2-5.2-7.5-9.5c1-5.8,4.8-9.4,7.8-9.6c3-0.1,2,3,2.6,5.3
				c1,3.4,4.6,3.4,6.5,1.9c1.8-1.6,2.1-6-3.3-9.1c-5.4-3.1-13.9-1.9-18.6,4.5c-5.1,7-2.6,13.1-2.6,13.1s-3,2.5-4.3,2.8
				c-4.2,1-5.2-1.8-5.2-4.9c0.1-5.9,5.2-17.1,7.4-21.6c16.6,2.1,24.1-2.6,29.9-8.1c5.4-5.1,7-12.9,3.4-17c-5-5.6-14-5.1-22.8-0.2
				C66,10.3,61,18.8,59.6,21.3c-10.7-3.5-23.7-8.3-34.9-8.9C4.3,11.5,2.8,25.3,4.7,22.8c1.4-1.8,4.5-3.7,5.9-4.2
				c3.5-1.3,7.9-2.3,18.4,0.2c4.4,1,25.9,9.3,27,9.7c-5.1,10.1-8.8,21.2-8,27.1c1.4,10.5,10.1,8,13.3,6.6c3.7-1.6,6.1-3.9,6.1-3.9
				s4.4,5.4,12.4,5.4c11.6,0,19-10.1,19-13.4C98.8,49.1,98.2,49.8,98,50.1z M67.6,23.8c0.7-1.8,2.6-4.9,3.4-6.1
				C82,1.4,91.3,6.9,91.5,12.7c0.1,3.2-1.1,11.9-15.9,12.3C73.4,25.1,70.7,24.6,67.6,23.8L67.6,23.8z"/>
		</g>
	</g>
	<g>
		<path d="M18.7,75.5h5.1v0.7h-4.3v2.5h3.9v0.7h-3.9v3.1h-0.8V75.5z"/>
		<path d="M25.6,75.5h0.8v6.4h4v0.7h-4.8V75.5z"/>
		<path d="M31.4,79.1L31.4,79.1c0-2,1.5-3.7,3.6-3.7c1.3,0,2.1,0.5,2.8,1.1l-0.6,0.6c-0.6-0.6-1.3-1-2.2-1c-1.6,0-2.8,1.3-2.8,2.9v0
			c0,1.7,1.2,2.9,2.8,2.9c1,0,1.6-0.4,2.3-1l0.5,0.5c-0.7,0.8-1.6,1.3-2.9,1.3C32.9,82.7,31.4,81.1,31.4,79.1z"/>
		<path d="M42.4,79.1L42.4,79.1c0-2,1.4-3.7,3.6-3.7c1.2,0,1.9,0.3,2.7,0.9l-0.5,0.6c-0.6-0.5-1.2-0.8-2.2-0.8
			c-1.6,0-2.7,1.3-2.7,2.9v0c0,1.7,1.1,3,2.8,3c0.8,0,1.6-0.3,2.1-0.7v-1.8h-2.2v-0.7h2.9v2.8c-0.7,0.6-1.7,1.1-2.9,1.1
			C43.8,82.7,42.4,81.1,42.4,79.1z"/>
		<path d="M50.9,75.5H54c0.9,0,1.6,0.3,2,0.7c0.3,0.3,0.6,0.8,0.6,1.4v0c0,1.2-0.8,1.9-1.9,2.1l2.2,2.9h-1l-2.1-2.8h0h-2v2.8h-0.8
			V75.5z M53.9,79.1c1.1,0,1.8-0.6,1.8-1.5v0c0-0.9-0.7-1.4-1.8-1.4h-2.2v2.9H53.9z"/>
		<path d="M58.2,79.1L58.2,79.1c0-2,1.5-3.7,3.6-3.7c2.2,0,3.6,1.7,3.6,3.7c0,0,0,0,0,0c0,2-1.5,3.7-3.6,3.7
			C59.6,82.7,58.2,81,58.2,79.1z M64.6,79.1L64.6,79.1c0-1.6-1.2-3-2.8-3c-1.6,0-2.8,1.3-2.8,2.9v0c0,1.6,1.2,2.9,2.8,2.9
			C63.4,82,64.6,80.7,64.6,79.1z"/>
		<path d="M67.2,79.6v-4.1H68v4.1c0,1.5,0.8,2.4,2.2,2.4c1.3,0,2.1-0.8,2.1-2.4v-4.1h0.8v4.1c0,2.1-1.2,3.2-3,3.2
			C68.4,82.7,67.2,81.7,67.2,79.6z"/>
		<path d="M75.3,75.5h2.7c1.6,0,2.7,0.9,2.7,2.3v0c0,1.5-1.3,2.3-2.8,2.3h-1.7v2.5h-0.8V75.5z M77.8,79.4c1.2,0,2-0.6,2-1.6v0
			c0-1-0.8-1.5-1.9-1.5h-1.8v3.1H77.8z"/>
	</g>
</g>
</svg>
